<svg xmlns="http://www.w3.org/2000/svg" width="19.155" height="19.146" viewBox="0 0 19.155 19.146">
  <g id="Group_1386" data-name="Group 1386" transform="translate(-57.85 -58.568)">
    <path id="Path_1752" data-name="Path 1752" d="M58,104.185a2.21,2.21,0,0,1,.354-.271q2.252-1.1,4.513-2.191a.284.284,0,0,0,.181-.29.563.563,0,0,0-.225-.5,6.991,6.991,0,0,1,4.01-12.218,6.915,6.915,0,0,1,4.082.9.4.4,0,0,1,.25.409.375.375,0,0,1-.578.255,10.49,10.49,0,0,0-1.275-.56,6.233,6.233,0,0,0-8.015,4.72,6.089,6.089,0,0,0,1.558,5.515c.041.045.086.088.13.13.007.007.021.008.057.019,0-.07,0-.134,0-.2,0-.859-.009-1.718,0-2.576a4.278,4.278,0,0,1,.447-1.825c.745-1.558,1.5-3.114,2.243-4.671a.953.953,0,0,1,.57-.563.966.966,0,0,1,.983.306c.048.045.091.1.135.143a3.675,3.675,0,0,1,.335-.295.845.845,0,0,1,1.334.344c.349.709.687,1.423,1.029,2.135q.609,1.267,1.218,2.534a4.7,4.7,0,0,1,.484,2.094c0,.852,0,1.7,0,2.581a1.2,1.2,0,0,0,.114-.092,6.27,6.27,0,0,0,.909-7.481.372.372,0,0,1,.11-.557c.2-.109.4-.033.534.2a7,7,0,0,1-1.494,8.792.626.626,0,0,0-.175.62c.019.046.087.079.139.1q1.917.933,3.835,1.862c.27.131.539.265.81.394a.407.407,0,0,1,.253.409c0,.4-.011.8,0,1.2a.491.491,0,0,1-.262.5H71.033c-.1-.086-.208-.168-.306-.258-.407-.372-.808-.751-1.22-1.118a.607.607,0,0,0-.284-.136,2.19,2.19,0,0,1-1.13-.493c-.253-.231-.466-.505-.7-.763,0,0-.018.027-.035.057a2.273,2.273,0,0,1-1.7,1.185.64.64,0,0,0-.349.172c-.5.454-1,.9-1.5,1.354H58Zm18.114,1.141c0-.211-.012-.4,0-.578a.269.269,0,0,0-.189-.3c-1.518-.73-3.03-1.471-4.549-2.2a.49.49,0,0,1-.311-.5c.009-1.386,0-2.772.013-4.158a4.126,4.126,0,0,0-.421-1.846Q69.568,93.47,68.479,91.2c-.019-.039-.04-.076-.057-.115-.058-.132-.162-.149-.242-.05a.845.845,0,0,0-.23.415,2.594,2.594,0,0,0,.083.868c.39,1.27.808,2.531,1.22,3.794a.431.431,0,0,0,.113.18,1.2,1.2,0,0,1,.414.817c.07.948.127,1.9.183,2.845a.357.357,0,0,1-.351.409.363.363,0,0,1-.383-.381c-.051-.845-.1-1.689-.153-2.534A1.523,1.523,0,0,0,69,97.036a.373.373,0,0,0-.658-.122.875.875,0,0,0-.168.47q-.113,2.426-.2,4.853a1.516,1.516,0,0,0,1.467,1.592.717.717,0,0,1,.39.165c.452.4.885.813,1.334,1.213a.476.476,0,0,0,.287.115c1.484.007,2.969,0,4.454,0Zm-17.378-.014a.6.6,0,0,0,.076.013c1.546,0,3.092,0,4.638,0a.371.371,0,0,0,.219-.1c.451-.407.89-.826,1.346-1.227a.69.69,0,0,1,.372-.162A1.516,1.516,0,0,0,66.87,102.2q-.084-2.4-.194-4.8a1.052,1.052,0,0,0-.113-.419.386.386,0,0,0-.418-.206.359.359,0,0,0-.312.3,2.608,2.608,0,0,0-.061.454c-.053.826-.1,1.653-.151,2.479a.367.367,0,1,1-.732-.052q.073-1.332.159-2.663a1.406,1.406,0,0,1,.411-.975.61.61,0,0,0,.153-.239q.4-1.213.784-2.43c.17-.537.346-1.072.491-1.616a1.014,1.014,0,0,0-.08-.854.592.592,0,0,0-.273-.191c-.022-.009-.116.123-.154.2q-1.1,2.283-2.2,4.569a4.053,4.053,0,0,0-.412,1.81c.009,1.386,0,2.772.013,4.158a.517.517,0,0,1-.33.531q-2.286,1.1-4.562,2.215a.273.273,0,0,0-.147.169C58.726,104.86,58.736,105.081,58.736,105.312Zm8.712-12.383H67.4l-1,3.112a1.334,1.334,0,0,1,1.029,1.192,1.332,1.332,0,0,1,1.023-1.2Z" transform="translate(0 -28.498)" fill="gray" stroke="gray" stroke-width="0.3"/>
    <path id="Path_1754" data-name="Path 1754" d="M242.591,59.451a.367.367,0,1,1,.367-.357A.371.371,0,0,1,242.591,59.451Z" transform="translate(-175.166 0)" fill="gray" stroke="gray" stroke-width="0.3"/>
    <path id="Path_1755" data-name="Path 1755" d="M77.843,224.149a.367.367,0,1,1,.381-.343A.372.372,0,0,1,77.843,224.149Z" transform="translate(-18.532 -156.599)" fill="gray" stroke="gray" stroke-width="0.3"/>
    <path id="Path_1756" data-name="Path 1756" d="M407.689,223.781a.367.367,0,1,1-.365-.36A.37.37,0,0,1,407.689,223.781Z" transform="translate(-331.797 -156.604)" fill="gray" stroke="gray" stroke-width="0.3"/>
    <path id="Path_1757" data-name="Path 1757" d="M337.856,128.208a.355.355,0,0,1,.363.359.367.367,0,0,1-.355.373.379.379,0,0,1-.377-.374A.368.368,0,0,1,337.856,128.208Z" transform="translate(-265.744 -66.073)" fill="gray" stroke="gray" stroke-width="0.3"/>
    <path id="Path_1758" data-name="Path 1758" d="M160.212,80.827a.364.364,0,1,1-.362.365A.366.366,0,0,1,160.212,80.827Z" transform="translate(-96.842 -21.022)" fill="gray" stroke="gray" stroke-width="0.3"/>
    <path id="Path_1759" data-name="Path 1759" d="M324.947,80.82a.364.364,0,1,1-.363.364A.367.367,0,0,1,324.947,80.82Z" transform="translate(-253.476 -21.015)" fill="gray" stroke="gray" stroke-width="0.3"/>
    <path id="Path_1760" data-name="Path 1760" d="M100.342,141.429a.364.364,0,1,1-.361-.365A.363.363,0,0,1,100.342,141.429Z" transform="translate(-39.568 -78.297)" fill="gray" stroke="gray" stroke-width="0.3"/>
    <path id="Path_1761" data-name="Path 1761" d="M385.687,141.441a.364.364,0,1,1-.351-.375A.367.367,0,0,1,385.687,141.441Z" transform="translate(-310.883 -78.299)" fill="gray" stroke="gray" stroke-width="0.3"/>
    <path id="Path_1762" data-name="Path 1762" d="M99.976,306.5a.367.367,0,1,1,.368-.359A.366.366,0,0,1,99.976,306.5Z" transform="translate(-39.571 -234.904)" fill="gray" stroke="gray" stroke-width="0.3"/>
    <path id="Path_1763" data-name="Path 1763" d="M385.683,306.137a.364.364,0,1,1-.36-.366A.365.365,0,0,1,385.683,306.137Z" transform="translate(-310.879 -234.905)" fill="gray" stroke="gray" stroke-width="0.3"/>
  </g>
</svg>
