<svg xmlns="http://www.w3.org/2000/svg" width="20.479" height="20.474" viewBox="0 0 20.479 20.474">
  <g id="Group_1385" data-name="Group 1385" transform="translate(-58 -58.679)">
    <path id="Path_1750" data-name="Path 1750" d="M174.4,144.689a9.465,9.465,0,0,1-1.2-.359,2.258,2.258,0,0,1-1.392-1.619,2.01,2.01,0,0,1,.9-2.17,3.5,3.5,0,0,1,3.638-.286c.059.026.117.058.205.1v-.233c0-2.612.006-5.224-.006-7.835a.782.782,0,0,1,.539-.823q4.059-1.721,8.1-3.476a.651.651,0,0,1,.968.632q-.026,4.927,0,9.854a2.337,2.337,0,0,1-1.3,2.191,3.575,3.575,0,0,1-3.888-.328,2.075,2.075,0,0,1,.146-3.4,3.515,3.515,0,0,1,3.64-.277c.059.026.116.056.189.092v-4.93c-.075.028-.148.051-.217.08q-3.392,1.454-6.786,2.905a.265.265,0,0,0-.188.294q.008,3.448,0,6.9a2.391,2.391,0,0,1-1.716,2.457,9.345,9.345,0,0,1-.923.235Zm3.359-11.11c.085-.034.146-.056.206-.082l3.868-1.658c.984-.422,1.968-.841,2.95-1.268.07-.031.162-.114.166-.177.017-.318.008-.638.008-.982-.095.039-.174.07-.252.1l-2.658,1.14q-2.062.884-4.123,1.771a.28.28,0,0,0-.156.182C177.754,132.921,177.763,133.234,177.763,133.579Zm5.374,3.912a2.263,2.263,0,0,0-1.3.4.911.911,0,0,0-.009,1.592,2.4,2.4,0,0,0,2.652.013.917.917,0,0,0-.009-1.616A2.294,2.294,0,0,0,183.137,137.491Zm-8.379,6a2.279,2.279,0,0,0,1.318-.392.917.917,0,0,0,.005-1.616,2.4,2.4,0,0,0-2.651.015.908.908,0,0,0,0,1.58A2.261,2.261,0,0,0,174.758,143.492Z" transform="translate(-107.689 -65.536)" fill="gray"/>
    <path id="Path_1751" data-name="Path 1751" d="M58,69.2a2.628,2.628,0,0,1,.474-1.02,3.065,3.065,0,0,1,2-1.06,3.647,3.647,0,0,1,2.326.428V59.518c0-.053,0-.107,0-.16a.608.608,0,0,1,1.088-.433,18.811,18.811,0,0,1,2.248,2.75,16.184,16.184,0,0,1,1.032,1.843,5.58,5.58,0,0,1,.382,1.255,2.777,2.777,0,0,1-.379,2.016,10.686,10.686,0,0,1-.892,1.247.586.586,0,0,1-.882.087.615.615,0,0,1,.01-.906c.17-.2.328-.4.483-.61a2.327,2.327,0,0,0,.256-2.468,12.528,12.528,0,0,0-1.706-2.76c-.13-.168-.267-.33-.439-.543v.258c0,2.705-.016,5.41.008,8.115a2.345,2.345,0,0,1-1.562,2.364A3.421,3.421,0,0,1,58.8,71.1a2.07,2.07,0,0,1-.763-1.276A.3.3,0,0,0,58,69.758Zm3,1.481a2.276,2.276,0,0,0,1.317-.394.917.917,0,0,0,0-1.616,2.4,2.4,0,0,0-2.651.018.909.909,0,0,0,0,1.58A2.263,2.263,0,0,0,61,70.679Z" transform="translate(0)" fill="gray"/>
  </g>
</svg>
